<svg width="300" height="48" viewBox="0 0 300 48" fill="none" xmlns="http://www.w3.org/2000/svg">
<g clip-path="url(#clip0_2_22)">
<path d="M17.3232 24.2667C19.2932 16.8442 17.0454 9.06383 11.6665 4.94094C4.33919 9.58917 0.113613 18.3306 1.63992 27.4373C2.14346 30.4476 3.23299 33.2139 4.76618 35.6389C10.4935 34.0403 15.5318 31.0133 17.3232 24.2667ZM27.2123 45.6918C39.305 43.6574 47.4587 32.182 45.4269 20.066C43.7368 9.98255 35.5329 2.63207 25.8597 1.61664C23.9064 1.41215 21.8893 1.4673 19.8556 1.80854C17.4429 2.21376 15.1952 2.99899 13.1467 4.08896C23.8034 7.71119 29.5336 13.2192 29.9311 18.8609C30.1274 22.3464 28.5099 24.8658 26.3879 26.9189L41.4595 25.8643C41.8837 25.8348 42.0191 26.3325 41.5007 26.4811L5.55632 36.8105C9.21555 41.8621 14.8987 45.2216 21.2072 45.8837C23.1605 46.0883 25.1775 46.0362 27.2123 45.6918ZM25.9972 0.291707C37.8376 1.52623 47.069 11.5518 47.074 23.7413C47.0788 36.7702 36.544 47.3347 23.5462 47.3396C10.5456 47.3445 0.00367879 36.7859 0.000734136 23.7591C-0.00417362 10.7303 10.5308 0.164778 23.5285 0.160749C24.3609 0.160749 25.1853 0.207089 25.9972 0.291707Z" fill="white"/>
<path d="M1.64021 27.4373C2.14375 30.4476 3.23328 33.2139 4.76647 35.6389C10.4938 34.0403 15.5321 31.0133 17.3235 24.2667C19.2934 16.8442 17.0457 9.06384 11.6668 4.94095C4.33947 9.58918 0.113901 18.3306 1.64021 27.4373ZM45.4272 20.066C47.459 32.182 39.3053 43.6574 27.2126 45.6918C25.1778 46.0362 23.1607 46.0883 21.2074 45.8837C14.899 45.2216 9.21584 41.8621 5.55661 36.8105L41.501 26.4811C42.0194 26.3325 41.884 25.8348 41.4598 25.8643L26.3882 26.9189C28.5102 24.8658 30.1277 22.3464 29.9314 18.861C29.5339 13.2192 23.8037 7.7112 13.1469 4.08897C15.1955 2.999 17.4432 2.21376 19.8559 1.80855C21.8896 1.4673 23.9067 1.41215 25.86 1.61665C35.5332 2.63207 43.7371 9.98255 45.4272 20.066" fill="#231F20"/>
<g filter="url(#filter0_d_2_22)">
<path d="M56.096 36.064C55.3067 36.064 54.7307 35.9573 54.368 35.744C54.0053 35.5307 53.824 35.232 53.824 34.848V14.88C53.824 14.0267 54.336 13.6 55.36 13.6H62.048C64.6933 13.6 66.6773 14.2187 68 15.456C69.3227 16.672 69.984 18.496 69.984 20.928C69.984 23.3813 69.3227 25.2267 68 26.464C66.6773 27.7013 64.6933 28.32 62.048 28.32H59.296V34.848C59.296 35.232 59.1147 35.5307 58.752 35.744C58.4107 35.9573 57.8347 36.064 57.024 36.064H56.096ZM59.296 23.424H62.08C62.8907 23.424 63.4773 23.232 63.84 22.848C64.224 22.464 64.416 21.8347 64.416 20.96C64.416 20.0853 64.224 19.456 63.84 19.072C63.4773 18.688 62.8907 18.496 62.08 18.496H59.296V23.424ZM79.658 36.256C78.634 36.256 77.7487 36.064 77.002 35.68C76.2767 35.2747 75.722 34.6987 75.338 33.952C74.9753 33.2053 74.794 32.288 74.794 31.2V13.088C74.794 12.6827 74.9647 12.384 75.306 12.192C75.6687 11.9787 76.234 11.872 77.002 11.872H77.898C78.6873 11.872 79.2527 11.9787 79.594 12.192C79.9353 12.384 80.106 12.6827 80.106 13.088V30.72C80.106 31.1467 80.1807 31.456 80.33 31.648C80.4793 31.84 80.7247 31.936 81.066 31.936C81.3647 31.936 81.61 31.8933 81.802 31.808C82.0153 31.7013 82.186 31.648 82.314 31.648C82.4633 31.648 82.5913 31.7653 82.698 32C82.826 32.2347 82.9327 32.5227 83.018 32.864C83.1247 33.2053 83.1993 33.536 83.242 33.856C83.306 34.1547 83.338 34.368 83.338 34.496C83.338 34.7947 83.1567 35.0827 82.794 35.36C82.4313 35.6373 81.962 35.8507 81.386 36C80.8313 36.1707 80.2553 36.256 79.658 36.256ZM91.302 36.256C89.6593 36.256 88.4433 35.7973 87.654 34.88C86.886 33.9413 86.502 32.7467 86.502 31.296C86.502 30.6773 86.598 30.0373 86.79 29.376C87.0033 28.6933 87.4193 28.064 88.038 27.488C88.678 26.8907 89.6167 26.4107 90.854 26.048C92.1127 25.6853 93.7767 25.504 95.846 25.504V24.736C95.846 24.352 95.7713 24.0427 95.622 23.808C95.494 23.5733 95.2487 23.4027 94.886 23.296C94.5447 23.168 94.054 23.104 93.414 23.104C92.6033 23.104 91.8673 23.1787 91.206 23.328C90.566 23.4773 90.0113 23.6267 89.542 23.776C89.094 23.9253 88.7527 24 88.518 24C88.3473 24 88.1873 23.8827 88.038 23.648C87.8887 23.4133 87.75 23.136 87.622 22.816C87.5153 22.4747 87.43 22.144 87.366 21.824C87.3233 21.4827 87.302 21.2267 87.302 21.056C87.302 20.7787 87.5047 20.5227 87.91 20.288C88.3153 20.032 88.838 19.808 89.478 19.616C90.1393 19.424 90.8433 19.2747 91.59 19.168C92.358 19.0613 93.0833 19.008 93.766 19.008C95.1953 19.008 96.3793 19.1467 97.318 19.424C98.278 19.7013 99.0353 20.0853 99.59 20.576C100.145 21.0667 100.539 21.6533 100.774 22.336C101.009 23.0187 101.126 23.7547 101.126 24.544V30.368C101.126 31.392 101.158 32.2027 101.222 32.8C101.286 33.376 101.35 33.824 101.414 34.144C101.478 34.464 101.51 34.7413 101.51 34.976C101.51 35.2107 101.361 35.392 101.062 35.52C100.763 35.648 100.39 35.7547 99.942 35.84C99.5153 35.9253 99.0673 35.9787 98.598 36C98.15 36.0213 97.766 36.032 97.446 36.032C97.1473 36.032 96.9233 35.936 96.774 35.744C96.6247 35.552 96.518 35.3067 96.454 35.008C96.39 34.7093 96.3153 34.4213 96.23 34.144C96.102 34.3147 95.8247 34.5813 95.398 34.944C94.9927 35.2853 94.4487 35.5947 93.766 35.872C93.0833 36.128 92.262 36.256 91.302 36.256ZM93.254 32.16C93.574 32.16 93.8833 32.1067 94.182 32C94.502 31.8933 94.8007 31.744 95.078 31.552C95.3767 31.36 95.6327 31.136 95.846 30.88V28.832C95.078 28.832 94.4273 28.8747 93.894 28.96C93.382 29.0453 92.9553 29.1733 92.614 29.344C92.2727 29.4933 92.0273 29.696 91.878 29.952C91.7287 30.1867 91.654 30.4747 91.654 30.816C91.654 31.2213 91.782 31.552 92.038 31.808C92.294 32.0427 92.6993 32.16 93.254 32.16ZM109.635 36.064C108.867 36.064 108.302 35.968 107.939 35.776C107.598 35.5627 107.427 35.2533 107.427 34.848V24.832C107.427 23.8293 107.395 23.0613 107.331 22.528C107.289 21.9947 107.235 21.5893 107.171 21.312C107.129 21.0347 107.107 20.7787 107.107 20.544C107.107 20.288 107.246 20.0747 107.523 19.904C107.801 19.7333 108.142 19.6053 108.547 19.52C108.974 19.4347 109.401 19.3813 109.827 19.36C110.254 19.3173 110.627 19.296 110.947 19.296C111.353 19.296 111.641 19.36 111.811 19.488C112.003 19.5947 112.142 19.808 112.227 20.128C112.334 20.4267 112.43 20.864 112.515 21.44C112.921 20.9707 113.379 20.5547 113.891 20.192C114.425 19.808 115.001 19.52 115.62 19.328C116.238 19.1147 116.889 19.008 117.571 19.008C118.595 19.008 119.449 19.1893 120.132 19.552C120.814 19.9147 121.326 20.4587 121.668 21.184C122.03 21.888 122.212 22.7627 122.212 23.808V34.848C122.212 35.2533 122.041 35.5627 121.7 35.776C121.358 35.968 120.793 36.064 120.003 36.064H119.108C118.339 36.064 117.774 35.968 117.411 35.776C117.07 35.5627 116.899 35.2533 116.899 34.848V24.992C116.899 24.4587 116.771 24.0533 116.516 23.776C116.281 23.4987 115.875 23.36 115.299 23.36C115.001 23.36 114.691 23.424 114.372 23.552C114.051 23.6587 113.753 23.8187 113.475 24.032C113.198 24.224 112.953 24.4587 112.739 24.736V34.848C112.739 35.2533 112.558 35.5627 112.195 35.776C111.854 35.968 111.299 36.064 110.531 36.064H109.635ZM135.64 36.256C132.995 36.256 130.979 35.5093 129.592 34.016C128.205 32.5227 127.512 30.3893 127.512 27.616C127.512 24.8213 128.205 22.688 129.592 21.216C130.979 19.744 132.995 19.008 135.64 19.008C138.285 19.008 140.291 19.744 141.656 21.216C143.043 22.688 143.736 24.8213 143.736 27.616C143.736 30.3893 143.053 32.5227 141.688 34.016C140.323 35.5093 138.307 36.256 135.64 36.256ZM135.64 32C136.579 32 137.261 31.648 137.688 30.944C138.115 30.24 138.328 29.1307 138.328 27.616C138.328 26.1227 138.115 25.024 137.688 24.32C137.261 23.616 136.579 23.264 135.64 23.264C134.68 23.264 133.987 23.616 133.56 24.32C133.133 25.024 132.92 26.1227 132.92 27.616C132.92 29.1307 133.133 30.24 133.56 30.944C133.987 31.648 134.68 32 135.64 32ZM151.587 36.064C150.797 36.064 150.221 35.968 149.859 35.776C149.517 35.5627 149.347 35.2533 149.347 34.848V24.832C149.347 23.8293 149.315 23.0613 149.251 22.528C149.208 21.9947 149.155 21.5893 149.091 21.312C149.048 21.0347 149.027 20.7787 149.027 20.544C149.027 20.288 149.165 20.0747 149.443 19.904C149.72 19.7333 150.072 19.6053 150.499 19.52C150.925 19.4347 151.352 19.3813 151.779 19.36C152.205 19.3173 152.579 19.296 152.899 19.296C153.283 19.296 153.571 19.36 153.763 19.488C153.955 19.616 154.104 19.8613 154.211 20.224C154.317 20.5867 154.424 21.12 154.531 21.824C154.723 21.2693 155 20.7893 155.363 20.384C155.725 19.9573 156.12 19.6267 156.547 19.392C156.995 19.136 157.411 19.008 157.795 19.008C158.349 19.008 158.723 19.1253 158.915 19.36C159.128 19.5947 159.235 19.968 159.235 20.48C159.235 20.672 159.213 20.992 159.171 21.44C159.128 21.888 159.053 22.3573 158.947 22.848C158.861 23.3387 158.733 23.7653 158.563 24.128C158.392 24.4693 158.168 24.64 157.891 24.64C157.699 24.64 157.485 24.5653 157.251 24.416C157.037 24.2667 156.749 24.192 156.387 24.192C156.003 24.192 155.661 24.2987 155.363 24.512C155.064 24.7253 154.84 24.992 154.691 25.312V34.848C154.691 35.2533 154.509 35.5627 154.147 35.776C153.805 35.968 153.251 36.064 152.483 36.064H151.587ZM167.384 36.256C165.742 36.256 164.526 35.7973 163.736 34.88C162.968 33.9413 162.584 32.7467 162.584 31.296C162.584 30.6773 162.68 30.0373 162.872 29.376C163.086 28.6933 163.502 28.064 164.12 27.488C164.76 26.8907 165.699 26.4107 166.936 26.048C168.195 25.6853 169.859 25.504 171.928 25.504V24.736C171.928 24.352 171.854 24.0427 171.704 23.808C171.576 23.5733 171.331 23.4027 170.968 23.296C170.627 23.168 170.136 23.104 169.496 23.104C168.686 23.104 167.95 23.1787 167.288 23.328C166.648 23.4773 166.094 23.6267 165.624 23.776C165.176 23.9253 164.835 24 164.6 24C164.43 24 164.27 23.8827 164.12 23.648C163.971 23.4133 163.832 23.136 163.704 22.816C163.598 22.4747 163.512 22.144 163.448 21.824C163.406 21.4827 163.384 21.2267 163.384 21.056C163.384 20.7787 163.587 20.5227 163.992 20.288C164.398 20.032 164.92 19.808 165.56 19.616C166.222 19.424 166.926 19.2747 167.672 19.168C168.44 19.0613 169.166 19.008 169.848 19.008C171.278 19.008 172.462 19.1467 173.4 19.424C174.36 19.7013 175.118 20.0853 175.672 20.576C176.227 21.0667 176.622 21.6533 176.856 22.336C177.091 23.0187 177.208 23.7547 177.208 24.544V30.368C177.208 31.392 177.24 32.2027 177.304 32.8C177.368 33.376 177.432 33.824 177.496 34.144C177.56 34.464 177.592 34.7413 177.592 34.976C177.592 35.2107 177.443 35.392 177.144 35.52C176.846 35.648 176.472 35.7547 176.024 35.84C175.598 35.9253 175.15 35.9787 174.68 36C174.232 36.0213 173.848 36.032 173.528 36.032C173.23 36.032 173.006 35.936 172.856 35.744C172.707 35.552 172.6 35.3067 172.536 35.008C172.472 34.7093 172.398 34.4213 172.312 34.144C172.184 34.3147 171.907 34.5813 171.48 34.944C171.075 35.2853 170.531 35.5947 169.848 35.872C169.166 36.128 168.344 36.256 167.384 36.256ZM169.336 32.16C169.656 32.16 169.966 32.1067 170.264 32C170.584 31.8933 170.883 31.744 171.16 31.552C171.459 31.36 171.715 31.136 171.928 30.88V28.832C171.16 28.832 170.51 28.8747 169.976 28.96C169.464 29.0453 169.038 29.1733 168.696 29.344C168.355 29.4933 168.11 29.696 167.96 29.952C167.811 30.1867 167.736 30.4747 167.736 30.816C167.736 31.2213 167.864 31.552 168.12 31.808C168.376 32.0427 168.782 32.16 169.336 32.16Z" fill="white" shape-rendering="crispEdges"/>
<path d="M54.368 35.744L54.1145 36.175L54.1145 36.175L54.368 35.744ZM68 15.456L67.6584 15.8211L67.6616 15.8241L68 15.456ZM68 26.464L67.6584 26.0989L67.6584 26.0989L68 26.464ZM59.296 28.32V27.82H58.796V28.32H59.296ZM58.752 35.744L58.4984 35.3129L58.487 35.32L58.752 35.744ZM59.296 23.424H58.796V23.924H59.296V23.424ZM63.84 22.848L63.4864 22.4944L63.4814 22.4995L63.4765 22.5047L63.84 22.848ZM63.84 19.072L63.4765 19.4153L63.4814 19.4205L63.4864 19.4256L63.84 19.072ZM59.296 18.496V17.996H58.796V18.496H59.296ZM56.096 36.064V35.564C55.33 35.564 54.8656 35.4566 54.6215 35.313L54.368 35.744L54.1145 36.175C54.5957 36.4581 55.2833 36.564 56.096 36.564V36.064ZM54.368 35.744L54.6215 35.313C54.3939 35.1791 54.324 35.0352 54.324 34.848H53.824H53.324C53.324 35.4288 53.6168 35.8822 54.1145 36.175L54.368 35.744ZM53.824 34.848H54.324V14.88H53.824H53.324V34.848H53.824ZM53.824 14.88H54.324C54.324 14.5568 54.4166 14.397 54.5281 14.3041C54.657 14.1967 54.9051 14.1 55.36 14.1V13.6V13.1C54.7909 13.1 54.271 13.2167 53.8879 13.5359C53.4874 13.8696 53.324 14.3499 53.324 14.88H53.824ZM55.36 13.6V14.1H62.048V13.6V13.1H55.36V13.6ZM62.048 13.6V14.1C64.6243 14.1 66.4634 14.7032 67.6584 15.8211L68 15.456L68.3416 15.0909C66.8913 13.7342 64.7624 13.1 62.048 13.1V13.6ZM68 15.456L67.6616 15.8241C68.8486 16.9154 69.484 18.5844 69.484 20.928H69.984H70.484C70.484 18.4076 69.7967 16.4286 68.3384 15.0879L68 15.456ZM69.984 20.928H69.484C69.484 23.2939 68.848 24.986 67.6584 26.0989L68 26.464L68.3416 26.8291C69.7973 25.4673 70.484 23.4688 70.484 20.928H69.984ZM68 26.464L67.6584 26.0989C66.4634 27.2168 64.6243 27.82 62.048 27.82V28.32V28.82C64.7624 28.82 66.8913 28.1858 68.3416 26.8291L68 26.464ZM62.048 28.32V27.82H59.296V28.32V28.82H62.048V28.32ZM59.296 28.32H58.796V34.848H59.296H59.796V28.32H59.296ZM59.296 34.848H58.796C58.796 35.0352 58.7261 35.1791 58.4985 35.313L58.752 35.744L59.0055 36.175C59.5032 35.8822 59.796 35.4288 59.796 34.848H59.296ZM58.752 35.744L58.487 35.32C58.2721 35.4543 57.8187 35.564 57.024 35.564V36.064V36.564C57.8506 36.564 58.5492 36.4604 59.017 36.168L58.752 35.744ZM57.024 36.064V35.564H56.096V36.064V36.564H57.024V36.064ZM59.296 23.424V23.924H62.08V23.424V22.924H59.296V23.424ZM62.08 23.424V23.924C62.9556 23.924 63.706 23.7181 64.2035 23.1913L63.84 22.848L63.4765 22.5047C63.2487 22.7459 62.8258 22.924 62.08 22.924V23.424ZM63.84 22.848L64.1936 23.2016C64.7148 22.6803 64.916 21.8896 64.916 20.96H64.416H63.916C63.916 21.7798 63.7332 22.2477 63.4864 22.4944L63.84 22.848ZM64.416 20.96H64.916C64.916 20.0304 64.7148 19.2397 64.1936 18.7184L63.84 19.072L63.4864 19.4256C63.7332 19.6723 63.916 20.1402 63.916 20.96H64.416ZM63.84 19.072L64.2035 18.7287C63.706 18.2019 62.9556 17.996 62.08 17.996V18.496V18.996C62.8258 18.996 63.2487 19.1741 63.4765 19.4153L63.84 19.072ZM62.08 18.496V17.996H59.296V18.496V18.996H62.08V18.496ZM59.296 18.496H58.796V23.424H59.296H59.796V18.496H59.296ZM77.002 35.68L76.7581 36.1165L76.7656 36.1207L76.7733 36.1246L77.002 35.68ZM75.338 33.952L74.8881 34.1705L74.8934 34.1807L75.338 33.952ZM75.306 12.192L75.5512 12.6279L75.5595 12.623L75.306 12.192ZM79.594 12.192L79.329 12.616L79.3388 12.6221L79.3489 12.6278L79.594 12.192ZM81.802 31.808L82.0051 32.2649L82.0155 32.2603L82.0256 32.2552L81.802 31.808ZM82.698 32L82.2428 32.2069L82.2503 32.2235L82.2591 32.2394L82.698 32ZM83.018 32.864L82.5329 32.9853L82.5364 32.9993L82.5408 33.0131L83.018 32.864ZM83.242 33.856L82.7464 33.9221L82.749 33.9416L82.7531 33.9608L83.242 33.856ZM82.794 35.36L82.4903 34.9628L82.4903 34.9628L82.794 35.36ZM81.386 36L81.2605 35.516L81.2497 35.5188L81.239 35.5221L81.386 36ZM79.658 36.256V35.756C78.6963 35.756 77.8927 35.5758 77.2307 35.2354L77.002 35.68L76.7733 36.1246C77.6046 36.5522 78.5717 36.756 79.658 36.756V36.256ZM77.002 35.68L77.2459 35.2435C76.6074 34.8867 76.1221 34.3835 75.7826 33.7233L75.338 33.952L74.8934 34.1807C75.3219 35.0139 75.9459 35.6626 76.7581 36.1165L77.002 35.68ZM75.338 33.952L75.7878 33.7335C75.4668 33.0727 75.294 32.2349 75.294 31.2H74.794H74.294C74.294 32.3411 74.4839 33.338 74.8882 34.1705L75.338 33.952ZM74.794 31.2H75.294V13.088H74.794H74.294V31.2H74.794ZM74.794 13.088H75.294C75.294 12.8555 75.3739 12.7275 75.5511 12.6278L75.306 12.192L75.0609 11.7562C74.5554 12.0405 74.294 12.5099 74.294 13.088H74.794ZM75.306 12.192L75.5595 12.623C75.805 12.4786 76.2604 12.372 77.002 12.372V11.872V11.372C76.2076 11.372 75.5323 11.4788 75.0525 11.761L75.306 12.192ZM77.002 11.872V12.372H77.898V11.872V11.372H77.002V11.872ZM77.898 11.872V12.372C78.6683 12.372 79.1128 12.4809 79.329 12.616L79.594 12.192L79.859 11.768C79.3925 11.4765 78.7064 11.372 77.898 11.372V11.872ZM79.594 12.192L79.3489 12.6278C79.5261 12.7275 79.606 12.8555 79.606 13.088H80.106H80.606C80.606 12.5099 80.3446 12.0405 79.8391 11.7562L79.594 12.192ZM80.106 13.088H79.606V30.72H80.106H80.606V13.088H80.106ZM80.106 30.72H79.606C79.606 31.1829 79.6828 31.6303 79.9353 31.955L80.33 31.648L80.7247 31.341C80.6786 31.2817 80.606 31.1104 80.606 30.72H80.106ZM80.33 31.648L79.9353 31.955C80.2135 32.3127 80.6362 32.436 81.066 32.436V31.936V31.436C80.8132 31.436 80.7451 31.3673 80.7247 31.341L80.33 31.648ZM81.066 31.936V32.436C81.4073 32.436 81.7282 32.388 82.0051 32.2649L81.802 31.808L81.5989 31.3511C81.4919 31.3987 81.3221 31.436 81.066 31.436V31.936ZM81.802 31.808L82.0256 32.2552C82.1157 32.2102 82.1862 32.1818 82.2391 32.1652C82.2938 32.1482 82.3162 32.148 82.314 32.148V31.648V31.148C82.0671 31.148 81.8111 31.2444 81.5784 31.3608L81.802 31.808ZM82.314 31.648V32.148C82.2838 32.148 82.2536 32.1417 82.2272 32.1305C82.2019 32.1198 82.1879 32.108 82.1841 32.1046C82.1809 32.1016 82.1863 32.1058 82.198 32.1234C82.2096 32.1407 82.225 32.1676 82.2428 32.2069L82.698 32L83.1532 31.7931C83.0282 31.5181 82.7757 31.148 82.314 31.148V31.648ZM82.698 32L82.2591 32.2394C82.3615 32.4272 82.4549 32.673 82.5329 32.9853L83.018 32.864L83.5031 32.7427C83.4105 32.3724 83.2905 32.0421 83.1369 31.7606L82.698 32ZM83.018 32.864L82.5408 33.0131C82.6398 33.3302 82.7079 33.6331 82.7464 33.9221L83.242 33.856L83.7376 33.7899C83.6908 33.4389 83.6095 33.0805 83.4952 32.7149L83.018 32.864ZM83.242 33.856L82.7531 33.9608C82.8171 34.2592 82.838 34.4263 82.838 34.496H83.338H83.838C83.838 34.3097 83.7949 34.0501 83.7309 33.7512L83.242 33.856ZM83.338 34.496H82.838C82.838 34.5705 82.7963 34.7288 82.4903 34.9628L82.794 35.36L83.0977 35.7572C83.5171 35.4365 83.838 35.0189 83.838 34.496H83.338ZM82.794 35.36L82.4903 34.9628C82.1941 35.1893 81.7906 35.3786 81.2605 35.516L81.386 36L81.5115 36.484C82.1334 36.3228 82.6686 36.0853 83.0977 35.7572L82.794 35.36ZM81.386 36L81.239 35.5221C80.7333 35.6777 80.207 35.756 79.658 35.756V36.256V36.756C80.3037 36.756 80.9294 36.6636 81.533 36.4779L81.386 36ZM87.654 34.88L87.2669 35.1967L87.275 35.2061L87.654 34.88ZM86.79 29.376L86.3127 29.2268L86.3098 29.2366L86.79 29.376ZM88.038 27.488L88.3787 27.8539L88.3792 27.8535L88.038 27.488ZM90.854 26.048L90.7156 25.5675L90.7134 25.5682L90.854 26.048ZM95.846 25.504V26.004H96.346V25.504H95.846ZM95.622 23.808L95.1831 24.0474L95.1911 24.0622L95.2002 24.0764L95.622 23.808ZM94.886 23.296L94.7104 23.7642L94.7275 23.7706L94.7449 23.7757L94.886 23.296ZM91.206 23.328L91.0959 22.8403L91.0924 22.8411L91.206 23.328ZM89.542 23.776L89.3904 23.2995L89.3839 23.3017L89.542 23.776ZM88.038 23.648L87.6162 23.9164L87.6162 23.9164L88.038 23.648ZM87.622 22.816L87.1448 22.9651L87.1506 22.9837L87.1578 23.0017L87.622 22.816ZM87.366 21.824L86.8699 21.886L86.8721 21.9041L86.8757 21.9221L87.366 21.824ZM87.91 20.288L88.1605 20.7207L88.1689 20.7159L88.177 20.7107L87.91 20.288ZM89.478 19.616L89.3386 19.1358L89.3343 19.1371L89.478 19.616ZM91.59 19.168L91.5212 18.6727L91.5193 18.673L91.59 19.168ZM97.318 19.424L97.1763 19.9035L97.1792 19.9044L97.318 19.424ZM99.59 20.576L99.9213 20.2015L99.9213 20.2015L99.59 20.576ZM101.222 32.8L100.725 32.8533L100.725 32.8552L101.222 32.8ZM101.414 34.144L100.924 34.2421L100.924 34.2421L101.414 34.144ZM101.062 35.52L101.259 35.9796L101.259 35.9796L101.062 35.52ZM99.942 35.84L99.8484 35.3488L99.8439 35.3497L99.942 35.84ZM98.598 36L98.5753 35.5005L98.5742 35.5006L98.598 36ZM96.774 35.744L96.3793 36.051L96.774 35.744ZM96.454 35.008L95.9651 35.1128L95.9651 35.1128L96.454 35.008ZM96.23 34.144L96.7079 33.997L96.4191 33.0585L95.83 33.844L96.23 34.144ZM95.398 34.944L95.7201 35.3265L95.7218 35.325L95.398 34.944ZM93.766 35.872L93.9416 36.3403L93.9542 36.3352L93.766 35.872ZM94.182 32L94.0239 31.5256L94.0138 31.5291L94.182 32ZM95.078 31.552L94.8076 31.1314L94.8004 31.136L94.7934 31.1409L95.078 31.552ZM95.846 30.88L96.2301 31.2001L96.346 31.061V30.88H95.846ZM95.846 28.832H96.346V28.332H95.846V28.832ZM93.894 28.96L93.815 28.4663L93.8118 28.4668L93.894 28.96ZM92.614 29.344L92.8144 29.8021L92.8262 29.7969L92.8376 29.7912L92.614 29.344ZM91.878 29.952L92.2998 30.2204L92.305 30.2123L92.3099 30.2039L91.878 29.952ZM92.038 31.808L91.6844 32.1616L91.6921 32.1692L91.7001 32.1766L92.038 31.808ZM91.302 36.256V35.756C89.7502 35.756 88.6967 35.3252 88.033 34.5539L87.654 34.88L87.275 35.2061C88.19 36.2695 89.5684 36.756 91.302 36.756V36.256ZM87.654 34.88L88.041 34.5634C87.3597 33.7307 87.002 32.6548 87.002 31.296H86.502H86.002C86.002 32.8385 86.4123 34.1519 87.267 35.1966L87.654 34.88ZM86.502 31.296H87.002C87.002 30.7295 87.0899 30.1365 87.2702 29.5154L86.79 29.376L86.3098 29.2366C86.1061 29.9382 86.002 30.6252 86.002 31.296H86.502ZM86.79 29.376L87.2672 29.5251C87.4503 28.9393 87.812 28.3816 88.3787 27.8539L88.038 27.488L87.6973 27.1221C87.0267 27.7464 86.5564 28.4474 86.3128 29.2269L86.79 29.376ZM88.038 27.488L88.3792 27.8535C88.9416 27.3286 89.7995 26.8781 90.9946 26.5278L90.854 26.048L90.7134 25.5682C89.4338 25.9432 88.4144 26.4528 87.6968 27.1225L88.038 27.488ZM90.854 26.048L90.9924 26.5285C92.1879 26.184 93.7997 26.004 95.846 26.004V25.504V25.004C93.7536 25.004 92.0374 25.1867 90.7156 25.5675L90.854 26.048ZM95.846 25.504H96.346V24.736H95.846H95.346V25.504H95.846ZM95.846 24.736H96.346C96.346 24.2918 96.2602 23.8795 96.0438 23.5396L95.622 23.808L95.2002 24.0764C95.2825 24.2058 95.346 24.4122 95.346 24.736H95.846ZM95.622 23.808L96.061 23.5686C95.8471 23.1764 95.4637 22.9447 95.0271 22.8163L94.886 23.296L94.7449 23.7757C95.0336 23.8606 95.141 23.9702 95.1831 24.0474L95.622 23.808ZM94.886 23.296L95.0616 22.8278C94.6369 22.6686 94.0757 22.604 93.414 22.604V23.104V23.604C94.0323 23.604 94.4524 23.6674 94.7104 23.7642L94.886 23.296ZM93.414 23.104V22.604C92.5732 22.604 91.7996 22.6814 91.0959 22.8403L91.206 23.328L91.3161 23.8157C91.9351 23.676 92.6334 23.604 93.414 23.604V23.104ZM91.206 23.328L91.0924 22.8411C90.4435 22.9925 89.8756 23.1452 89.3904 23.2995L89.542 23.776L89.6936 24.2525C90.1471 24.1082 90.6885 23.9622 91.3196 23.8149L91.206 23.328ZM89.542 23.776L89.3839 23.3017C88.9461 23.4476 88.6683 23.5 88.518 23.5V24V24.5C88.837 24.5 89.2419 24.4031 89.7001 24.2503L89.542 23.776ZM88.518 24V23.5C88.5339 23.5 88.5484 23.5029 88.5592 23.5068C88.5693 23.5104 88.5715 23.513 88.5657 23.5088C88.5515 23.4984 88.5136 23.464 88.4598 23.3796L88.038 23.648L87.6162 23.9164C87.7977 24.2017 88.0891 24.5 88.518 24.5V24ZM88.038 23.648L88.4598 23.3796C88.3306 23.1764 88.2053 22.928 88.0862 22.6303L87.622 22.816L87.1578 23.0017C87.2947 23.344 87.4468 23.6502 87.6162 23.9164L88.038 23.648ZM87.622 22.816L88.0992 22.6669C87.9973 22.3407 87.9165 22.0272 87.8563 21.7259L87.366 21.824L86.8757 21.9221C86.9435 22.2608 87.0333 22.6086 87.1448 22.9651L87.622 22.816ZM87.366 21.824L87.8621 21.762C87.82 21.425 87.802 21.1943 87.802 21.056H87.302H86.802C86.802 21.259 86.8267 21.5403 86.8699 21.886L87.366 21.824ZM87.302 21.056H87.802C87.802 21.0552 87.7999 20.9295 88.1605 20.7207L87.91 20.288L87.6595 19.8553C87.2094 20.1158 86.802 20.5021 86.802 21.056H87.302ZM87.91 20.288L88.177 20.7107C88.5322 20.4864 89.0095 20.2786 89.6217 20.0949L89.478 19.616L89.3343 19.1371C88.6666 19.3374 88.0985 19.5776 87.643 19.8653L87.91 20.288ZM89.478 19.616L89.6174 20.0962C90.2542 19.9113 90.9351 19.7666 91.6607 19.663L91.59 19.168L91.5193 18.673C90.7516 18.7827 90.0245 18.9367 89.3386 19.1358L89.478 19.616ZM91.59 19.168L91.6588 19.6632C92.407 19.5593 93.1092 19.508 93.766 19.508V19.008V18.508C93.0575 18.508 92.309 18.5633 91.5212 18.6728L91.59 19.168ZM93.766 19.008V19.508C95.1673 19.508 96.2995 19.6444 97.1763 19.9035L97.318 19.424L97.4597 18.9445C96.4592 18.6489 95.2234 18.508 93.766 18.508V19.008ZM97.318 19.424L97.1792 19.9044C98.0916 20.1679 98.7754 20.523 99.2587 20.9505L99.59 20.576L99.9213 20.2015C99.2952 19.6477 98.4644 19.2347 97.4568 18.9436L97.318 19.424ZM99.59 20.576L99.2587 20.9505C99.7504 21.3855 100.095 21.8997 100.301 22.4985L100.774 22.336L101.247 22.1735C100.983 21.4069 100.539 20.7479 99.9213 20.2015L99.59 20.576ZM100.774 22.336L100.301 22.4985C100.516 23.1242 100.626 23.8048 100.626 24.544H101.126H101.626C101.626 23.7045 101.501 22.9131 101.247 22.1735L100.774 22.336ZM101.126 24.544H100.626V30.368H101.126H101.626V24.544H101.126ZM101.126 30.368H100.626C100.626 31.3993 100.658 32.2302 100.725 32.8533L101.222 32.8L101.719 32.7467C101.658 32.1751 101.626 31.3847 101.626 30.368H101.126ZM101.222 32.8L100.725 32.8552C100.79 33.4364 100.856 33.9011 100.924 34.2421L101.414 34.144L101.904 34.0459C101.844 33.7469 101.782 33.3156 101.719 32.7448L101.222 32.8ZM101.414 34.144L100.924 34.2421C100.984 34.5413 101.01 34.7842 101.01 34.976H101.51H102.01C102.01 34.6985 101.972 34.3867 101.904 34.0459L101.414 34.144ZM101.51 34.976H101.01C101.01 34.9807 101.009 34.9785 101.011 34.9731C101.013 34.9676 101.015 34.9664 101.012 34.9701C101.004 34.9801 100.968 35.0165 100.865 35.0604L101.062 35.52L101.259 35.9796C101.658 35.8087 102.01 35.4884 102.01 34.976H101.51ZM101.062 35.52L100.865 35.0604C100.61 35.1698 100.274 35.2678 99.8484 35.3488L99.942 35.84L100.036 36.3312C100.506 36.2416 100.917 36.1262 101.259 35.9796L101.062 35.52ZM99.942 35.84L99.8439 35.3497C99.444 35.4297 99.0213 35.4802 98.5753 35.5005L98.598 36L98.6207 36.4995C99.1134 36.4771 99.5867 36.421 100.04 36.3303L99.942 35.84ZM98.598 36L98.5742 35.5006C98.1313 35.5217 97.7556 35.532 97.446 35.532V36.032V36.532C97.7764 36.532 98.1687 36.521 98.6218 36.4994L98.598 36ZM97.446 36.032V35.532C97.2627 35.532 97.2017 35.4795 97.1687 35.437L96.774 35.744L96.3793 36.051C96.645 36.3925 97.032 36.532 97.446 36.532V36.032ZM96.774 35.744L97.1687 35.437C97.0759 35.3177 96.9951 35.1466 96.9429 34.9032L96.454 35.008L95.9651 35.1128C96.041 35.4667 96.1735 35.7863 96.3793 36.051L96.774 35.744ZM96.454 35.008L96.9429 34.9032C96.876 34.5911 96.7977 34.2889 96.7079 33.997L96.23 34.144L95.7521 34.291C95.8329 34.5537 95.904 34.8276 95.9651 35.1128L96.454 35.008ZM96.23 34.144L95.83 33.844C95.7399 33.9641 95.5039 34.1978 95.0742 34.563L95.398 34.944L95.7218 35.325C96.1455 34.9649 96.4641 34.6653 96.63 34.444L96.23 34.144ZM95.398 34.944L95.0759 34.5615C94.723 34.8588 94.2294 35.1441 93.5778 35.4088L93.766 35.872L93.9542 36.3352C94.668 36.0453 95.2624 35.7119 95.7201 35.3265L95.398 34.944ZM93.766 35.872L93.5904 35.4038C92.9786 35.6333 92.22 35.756 91.302 35.756V36.256V36.756C92.304 36.756 93.1881 36.6227 93.9416 36.3402L93.766 35.872ZM93.254 32.16V32.66C93.6308 32.66 93.997 32.597 94.3502 32.4709L94.182 32L94.0138 31.5291C93.7696 31.6163 93.5172 31.66 93.254 31.66V32.16ZM94.182 32L94.3401 32.4743C94.7051 32.3527 95.0463 32.1821 95.3626 31.9631L95.078 31.552L94.7934 31.1409C94.555 31.3059 94.2989 31.434 94.0239 31.5257L94.182 32ZM95.078 31.552L95.3484 31.9726C95.687 31.7549 95.9821 31.4977 96.2301 31.2001L95.846 30.88L95.4619 30.5599C95.2832 30.7743 95.0663 30.9651 94.8076 31.1314L95.078 31.552ZM95.846 30.88H96.346V28.832H95.846H95.346V30.88H95.846ZM95.846 28.832V28.332C95.0616 28.332 94.3828 28.3754 93.815 28.4663L93.894 28.96L93.973 29.4537C94.4719 29.3739 95.0944 29.332 95.846 29.332V28.832ZM93.894 28.96L93.8118 28.4668C93.2671 28.5576 92.7891 28.6974 92.3904 28.8968L92.614 29.344L92.8376 29.7912C93.1216 29.6492 93.4969 29.5331 93.9762 29.4532L93.894 28.96ZM92.614 29.344L92.4136 28.8859C92.0004 29.0667 91.6612 29.3314 91.4461 29.7001L91.878 29.952L92.3099 30.2039C92.3935 30.0606 92.5449 29.92 92.8144 29.8021L92.614 29.344ZM91.878 29.952L91.4562 29.6836C91.2453 30.015 91.154 30.4012 91.154 30.816H91.654H92.154C92.154 30.5481 92.2121 30.3584 92.2998 30.2204L91.878 29.952ZM91.654 30.816H91.154C91.154 31.3366 91.3231 31.8002 91.6844 32.1616L92.038 31.808L92.3916 31.4544C92.2409 31.3038 92.154 31.1061 92.154 30.816H91.654ZM92.038 31.808L91.7001 32.1766C92.0899 32.5339 92.6453 32.66 93.254 32.66V32.16V31.66C92.7534 31.66 92.4981 31.5514 92.3759 31.4394L92.038 31.808ZM107.939 35.776L107.674 36.2L107.69 36.2095L107.706 36.2179L107.939 35.776ZM107.331 22.528L106.833 22.5679L106.834 22.5777L106.835 22.5876L107.331 22.528ZM107.171 21.312L106.677 21.388L106.68 21.4064L106.684 21.4244L107.171 21.312ZM107.523 19.904L107.786 20.3298L107.786 20.3298L107.523 19.904ZM108.547 19.52L108.449 19.0297L108.444 19.0307L108.547 19.52ZM109.827 19.36L109.852 19.8594L109.865 19.8588L109.877 19.8575L109.827 19.36ZM111.811 19.488L111.512 19.888L111.539 19.9085L111.569 19.9251L111.811 19.488ZM112.227 20.128L111.744 20.2568L111.75 20.2768L111.757 20.2962L112.227 20.128ZM112.515 21.44L112.021 21.5133L112.181 22.5925L112.894 21.7668L112.515 21.44ZM113.891 20.192L114.181 20.6L114.184 20.5978L113.891 20.192ZM115.62 19.328L115.768 19.8055L115.775 19.8032L115.782 19.8007L115.62 19.328ZM120.132 19.552L119.897 19.9936L119.897 19.9936L120.132 19.552ZM121.668 21.184L121.215 21.3969L121.219 21.405L121.223 21.413L121.668 21.184ZM121.7 35.776L121.945 36.2118L121.955 36.2061L121.964 36.2L121.7 35.776ZM117.411 35.776L117.147 36.2L117.162 36.2095L117.178 36.2179L117.411 35.776ZM116.516 23.776L116.134 24.099L116.141 24.1072L116.148 24.1151L116.516 23.776ZM114.372 23.552L114.53 24.0263L114.544 24.0217L114.557 24.0162L114.372 23.552ZM113.475 24.032L113.76 24.4431L113.77 24.436L113.78 24.4283L113.475 24.032ZM112.739 24.736L112.343 24.4311L112.239 24.5659V24.736H112.739ZM112.195 35.776L112.441 36.2119L112.449 36.207L112.195 35.776ZM109.635 36.064V35.564C108.89 35.564 108.425 35.4674 108.173 35.3341L107.939 35.776L107.706 36.2179C108.179 36.4686 108.845 36.564 109.635 36.564V36.064ZM107.939 35.776L108.204 35.352C108.011 35.2308 107.927 35.0824 107.927 34.848H107.427H106.927C106.927 35.4243 107.186 35.8945 107.674 36.2L107.939 35.776ZM107.427 34.848H107.927V24.832H107.427H106.927V34.848H107.427ZM107.427 24.832H107.927C107.927 23.8233 107.896 23.0317 107.828 22.4684L107.331 22.528L106.835 22.5876C106.895 23.091 106.927 23.8354 106.927 24.832H107.427ZM107.331 22.528L107.83 22.4881C107.787 21.9476 107.731 21.5132 107.659 21.1996L107.171 21.312L106.684 21.4244C106.74 21.6655 106.791 22.0417 106.833 22.5679L107.331 22.528ZM107.171 21.312L107.666 21.236C107.626 20.9791 107.607 20.7489 107.607 20.544H107.107H106.607C106.607 20.8085 106.632 21.0902 106.677 21.388L107.171 21.312ZM107.107 20.544H107.607C107.607 20.5096 107.61 20.4378 107.786 20.3298L107.523 19.904L107.261 19.4782C106.882 19.7115 106.607 20.0664 106.607 20.544H107.107ZM107.523 19.904L107.786 20.3298C108.003 20.1962 108.287 20.0858 108.651 20.0093L108.547 19.52L108.444 19.0307C107.997 19.1248 107.599 19.2704 107.261 19.4782L107.523 19.904ZM108.547 19.52L108.646 20.0103C109.049 19.9297 109.451 19.8795 109.852 19.8594L109.827 19.36L109.803 18.8606C109.351 18.8832 108.9 18.9396 108.449 19.0297L108.547 19.52ZM109.827 19.36L109.877 19.8575C110.293 19.816 110.649 19.796 110.947 19.796V19.296V18.796C110.606 18.796 110.216 18.8187 109.778 18.8625L109.827 19.36ZM110.947 19.296V19.796C111.328 19.796 111.476 19.8616 111.512 19.888L111.811 19.488L112.111 19.088C111.805 18.8584 111.378 18.796 110.947 18.796V19.296ZM111.811 19.488L111.569 19.9251C111.593 19.9388 111.676 20.0019 111.744 20.2568L112.227 20.128L112.711 19.9992C112.608 19.6141 112.414 19.2506 112.054 19.0509L111.811 19.488ZM112.227 20.128L111.757 20.2962C111.847 20.5485 111.937 20.9476 112.021 21.5133L112.515 21.44L113.01 21.3667C112.923 20.7804 112.822 20.3049 112.698 19.9598L112.227 20.128ZM112.515 21.44L112.894 21.7668C113.273 21.3284 113.701 20.9396 114.181 20.6L113.891 20.192L113.602 19.784C113.058 20.1697 112.569 20.6129 112.137 21.1132L112.515 21.44ZM113.891 20.192L114.184 20.5978C114.674 20.2448 115.201 19.9813 115.768 19.8055L115.62 19.328L115.471 18.8505C114.8 19.0587 114.176 19.3712 113.599 19.7862L113.891 20.192ZM115.62 19.328L115.782 19.8007C116.346 19.6062 116.942 19.508 117.571 19.508V19.008V18.508C116.836 18.508 116.13 18.6231 115.457 18.8553L115.62 19.328ZM117.571 19.008V19.508C118.539 19.508 119.306 19.6797 119.897 19.9936L120.132 19.552L120.366 19.1104C119.592 18.699 118.652 18.508 117.571 18.508V19.008ZM120.132 19.552L119.897 19.9936C120.48 20.3036 120.918 20.7654 121.215 21.3969L121.668 21.184L122.12 20.9711C121.734 20.1519 121.148 19.5258 120.366 19.1104L120.132 19.552ZM121.668 21.184L121.223 21.413C121.539 22.0272 121.712 22.8178 121.712 23.808H122.212H122.712C122.712 22.7075 122.521 21.7488 122.112 20.955L121.668 21.184ZM122.212 23.808H121.712V34.848H122.212H122.712V23.808H122.212ZM122.212 34.848H121.712C121.712 35.0824 121.628 35.2308 121.435 35.352L121.7 35.776L121.964 36.2C122.453 35.8945 122.712 35.4243 122.712 34.848H122.212ZM121.7 35.776L121.454 35.3402C121.232 35.4654 120.778 35.564 120.003 35.564V36.064V36.564C120.808 36.564 121.485 36.4706 121.945 36.2118L121.7 35.776ZM120.003 36.064V35.564H119.108V36.064V36.564H120.003V36.064ZM119.108 36.064V35.564C118.362 35.564 117.897 35.4674 117.645 35.3341L117.411 35.776L117.178 36.2179C117.651 36.4686 118.317 36.564 119.108 36.564V36.064ZM117.411 35.776L117.676 35.352C117.483 35.2308 117.399 35.0824 117.399 34.848H116.899H116.399C116.399 35.4243 116.658 35.8945 117.147 36.2L117.411 35.776ZM116.899 34.848H117.399V24.992H116.899H116.399V34.848H116.899ZM116.899 24.992H117.399C117.399 24.3849 117.254 23.8387 116.883 23.4369L116.516 23.776L116.148 24.1151C116.289 24.268 116.399 24.5325 116.399 24.992H116.899ZM116.516 23.776L116.897 23.453C116.524 23.0114 115.937 22.86 115.299 22.86V23.36V23.86C115.814 23.86 116.038 23.9859 116.134 24.099L116.516 23.776ZM115.299 23.36V22.86C114.928 22.86 114.556 22.9397 114.186 23.0878L114.372 23.552L114.557 24.0162C114.827 23.9083 115.073 23.86 115.299 23.86V23.36ZM114.372 23.552L114.213 23.0777C113.839 23.2026 113.491 23.3896 113.171 23.6357L113.475 24.032L113.78 24.4283C114.015 24.2477 114.264 24.1147 114.53 24.0263L114.372 23.552ZM113.475 24.032L113.191 23.6209C112.869 23.8434 112.587 24.1144 112.343 24.4311L112.739 24.736L113.136 25.0409C113.319 24.803 113.527 24.6046 113.76 24.4431L113.475 24.032ZM112.739 24.736H112.239V34.848H112.739H113.239V24.736H112.739ZM112.739 34.848H112.239C112.239 35.068 112.159 35.2173 111.942 35.345L112.195 35.776L112.449 36.207C112.957 35.908 113.239 35.4386 113.239 34.848H112.739ZM112.195 35.776L111.95 35.3402C111.727 35.4661 111.281 35.564 110.531 35.564V36.064V36.564C111.318 36.564 111.982 36.4699 112.441 36.2118L112.195 35.776ZM110.531 36.064V35.564H109.635V36.064V36.564H110.531V36.064ZM129.592 34.016L129.226 34.3562L129.226 34.3562L129.592 34.016ZM129.592 21.216L129.228 20.8732L129.228 20.8732L129.592 21.216ZM141.656 21.216L141.289 21.556L141.292 21.5588L141.656 21.216ZM141.688 34.016L141.319 33.6786L141.319 33.6786L141.688 34.016ZM137.688 30.944L137.26 30.6848L137.26 30.6848L137.688 30.944ZM137.688 24.32L137.26 24.5792L137.26 24.5792L137.688 24.32ZM133.56 24.32L133.988 24.5792L133.988 24.5792L133.56 24.32ZM133.56 30.944L133.988 30.6848L133.988 30.6848L133.56 30.944ZM135.64 36.256V35.756C133.09 35.756 131.224 35.0391 129.958 33.6758L129.592 34.016L129.226 34.3562C130.733 35.9796 132.899 36.756 135.64 36.756V36.256ZM129.592 34.016L129.958 33.6758C128.685 32.304 128.012 30.3093 128.012 27.616H127.512H127.012C127.012 30.4693 127.726 32.7414 129.226 34.3562L129.592 34.016ZM127.512 27.616H128.012C128.012 24.8996 128.685 22.9076 129.956 21.5588L129.592 21.216L129.228 20.8732C127.725 22.4684 127.012 24.7431 127.012 27.616H127.512ZM129.592 21.216L129.956 21.5588C131.221 20.2155 133.088 19.508 135.64 19.508V19.008V18.508C132.901 18.508 130.736 19.2725 129.228 20.8732L129.592 21.216ZM135.64 19.008V19.508C138.193 19.508 140.046 20.2157 141.289 21.556L141.656 21.216L142.023 20.876C140.535 19.2723 138.378 18.508 135.64 18.508V19.008ZM141.656 21.216L141.292 21.5588C142.563 22.9076 143.236 24.8996 143.236 27.616H143.736H144.236C144.236 24.7431 143.523 22.4684 142.02 20.8732L141.656 21.216ZM143.736 27.616H143.236C143.236 30.3112 142.573 32.3069 141.319 33.6786L141.688 34.016L142.057 34.3534C143.534 32.7384 144.236 30.4675 144.236 27.616H143.736ZM141.688 34.016L141.319 33.6786C140.076 35.0381 138.213 35.756 135.64 35.756V36.256V36.756C138.4 36.756 140.569 35.9805 142.057 34.3534L141.688 34.016ZM135.64 32V32.5C136.724 32.5 137.584 32.08 138.116 31.2032L137.688 30.944L137.26 30.6848C136.939 31.216 136.433 31.5 135.64 31.5V32ZM137.688 30.944L138.116 31.2032C138.615 30.3795 138.828 29.1566 138.828 27.616H138.328H137.828C137.828 29.1047 137.615 30.1005 137.26 30.6848L137.688 30.944ZM138.328 27.616H138.828C138.828 26.0951 138.614 24.8838 138.116 24.0608L137.688 24.32L137.26 24.5792C137.615 25.1642 137.828 26.1502 137.828 27.616H138.328ZM137.688 24.32L138.116 24.0608C137.584 23.184 136.724 22.764 135.64 22.764V23.264V23.764C136.433 23.764 136.939 24.048 137.26 24.5792L137.688 24.32ZM135.64 23.264V22.764C134.539 22.764 133.666 23.1802 133.132 24.0608L133.56 24.32L133.988 24.5792C134.307 24.0518 134.821 23.764 135.64 23.764V23.264ZM133.56 24.32L133.132 24.0608C132.634 24.8838 132.42 26.0951 132.42 27.616H132.92H133.42C133.42 26.1502 133.633 25.1642 133.988 24.5792L133.56 24.32ZM132.92 27.616H132.42C132.42 29.1566 132.633 30.3795 133.132 31.2032L133.56 30.944L133.988 30.6848C133.633 30.1005 133.42 29.1047 133.42 27.616H132.92ZM133.56 30.944L133.132 31.2032C133.666 32.0838 134.539 32.5 135.64 32.5V32V31.5C134.821 31.5 134.307 31.2122 133.988 30.6848L133.56 30.944ZM149.859 35.776L149.594 36.2L149.609 36.2095L149.625 36.2179L149.859 35.776ZM149.251 22.528L148.752 22.5679L148.753 22.5777L148.754 22.5876L149.251 22.528ZM149.091 21.312L148.597 21.388L148.599 21.4064L148.604 21.4244L149.091 21.312ZM149.443 19.904L149.705 20.3298L149.705 20.3298L149.443 19.904ZM151.779 19.36L151.804 19.8594L151.816 19.8588L151.829 19.8575L151.779 19.36ZM153.763 19.488L153.485 19.904L153.485 19.904L153.763 19.488ZM154.211 20.224L154.69 20.0829L154.69 20.0829L154.211 20.224ZM154.531 21.824L154.036 21.8989L155.003 21.9876L154.531 21.824ZM155.363 20.384L155.735 20.7175L155.744 20.7078L155.363 20.384ZM156.547 19.392L156.788 19.8302L156.795 19.8261L156.547 19.392ZM158.915 19.36L158.528 19.6766L158.536 19.6867L158.545 19.6963L158.915 19.36ZM159.171 21.44L159.669 21.4874L159.669 21.4874L159.171 21.44ZM158.947 22.848L158.458 22.7418L158.456 22.752L158.454 22.7623L158.947 22.848ZM158.563 24.128L159.01 24.3517L159.015 24.3409L158.563 24.128ZM157.251 24.416L156.964 24.8256L156.973 24.8319L156.982 24.8378L157.251 24.416ZM155.363 24.512L155.072 24.1051L155.072 24.1051L155.363 24.512ZM154.691 25.312L154.238 25.1006L154.191 25.2011V25.312H154.691ZM154.147 35.776L154.392 36.2119L154.4 36.207L154.147 35.776ZM151.587 36.064V35.564C150.817 35.564 150.343 35.4668 150.093 35.3341L149.859 35.776L149.625 36.2179C150.1 36.4692 150.778 36.564 151.587 36.564V36.064ZM149.859 35.776L150.124 35.352C149.93 35.2308 149.847 35.0824 149.847 34.848H149.347H148.847C148.847 35.4243 149.105 35.8945 149.594 36.2L149.859 35.776ZM149.347 34.848H149.847V24.832H149.347H148.847V34.848H149.347ZM149.347 24.832H149.847C149.847 23.8233 149.815 23.0317 149.747 22.4684L149.251 22.528L148.754 22.5876C148.815 23.091 148.847 23.8354 148.847 24.832H149.347ZM149.251 22.528L149.749 22.4881C149.706 21.9476 149.65 21.5132 149.578 21.1996L149.091 21.312L148.604 21.4244C148.659 21.6655 148.71 22.0417 148.752 22.5679L149.251 22.528ZM149.091 21.312L149.585 21.236C149.545 20.9791 149.527 20.7489 149.527 20.544H149.027H148.527C148.527 20.8085 148.551 21.0902 148.597 21.388L149.091 21.312ZM149.027 20.544H149.527C149.527 20.5096 149.529 20.4378 149.705 20.3298L149.443 19.904L149.181 19.4782C148.802 19.7115 148.527 20.0664 148.527 20.544H149.027ZM149.443 19.904L149.705 20.3298C149.918 20.1987 150.21 20.0877 150.597 20.0103L150.499 19.52L150.401 19.0297C149.934 19.123 149.522 19.268 149.181 19.4782L149.443 19.904ZM150.499 19.52L150.597 20.0103C151 19.9297 151.402 19.8795 151.804 19.8594L151.779 19.36L151.754 18.8606C151.302 18.8832 150.851 18.9396 150.401 19.0297L150.499 19.52ZM151.779 19.36L151.829 19.8575C152.244 19.816 152.6 19.796 152.899 19.796V19.296V18.796C152.558 18.796 152.167 18.8187 151.729 18.8625L151.779 19.36ZM152.899 19.296V19.796C153.243 19.796 153.414 19.8562 153.485 19.904L153.763 19.488L154.04 19.072C153.728 18.8638 153.323 18.796 152.899 18.796V19.296ZM153.763 19.488L153.485 19.904C153.534 19.9367 153.638 20.0482 153.731 20.3651L154.211 20.224L154.69 20.0829C154.57 19.6744 154.375 19.2953 154.04 19.072L153.763 19.488ZM154.211 20.224L153.731 20.3651C153.828 20.6947 153.931 21.2014 154.036 21.8989L154.531 21.824L155.025 21.7491C154.917 21.0386 154.807 20.4786 154.69 20.0829L154.211 20.224ZM154.531 21.824L155.003 21.9876C155.175 21.4906 155.42 21.0695 155.735 20.7174L155.363 20.384L154.99 20.0506C154.58 20.5092 154.27 21.0481 154.058 21.6604L154.531 21.824ZM155.363 20.384L155.744 20.7078C156.073 20.3206 156.422 20.0315 156.788 19.8301L156.547 19.392L156.306 18.9539C155.819 19.2219 155.378 19.5941 154.982 20.0602L155.363 20.384ZM156.547 19.392L156.795 19.8261C157.192 19.599 157.523 19.508 157.795 19.508V19.008V18.508C157.299 18.508 156.797 18.673 156.299 18.9579L156.547 19.392ZM157.795 19.008V19.508C158.316 19.508 158.486 19.6251 158.528 19.6766L158.915 19.36L159.302 19.0434C158.96 18.6255 158.383 18.508 157.795 18.508V19.008ZM158.915 19.36L158.545 19.6963C158.636 19.7967 158.735 20.0201 158.735 20.48H159.235H159.735C159.735 19.9159 159.62 19.3926 159.285 19.0237L158.915 19.36ZM159.235 20.48H158.735C158.735 20.646 158.716 20.9451 158.673 21.3926L159.171 21.44L159.669 21.4874C159.711 21.0389 159.735 20.698 159.735 20.48H159.235ZM159.171 21.44L158.673 21.3926C158.632 21.8187 158.561 22.2683 158.458 22.7418L158.947 22.848L159.435 22.9542C159.546 22.4463 159.624 21.9573 159.669 21.4874L159.171 21.44ZM158.947 22.848L158.454 22.7623C158.375 23.2192 158.258 23.6012 158.11 23.9151L158.563 24.128L159.015 24.3409C159.209 23.9294 159.348 23.4582 159.439 22.9337L158.947 22.848ZM158.563 24.128L158.116 23.9044C158.053 24.0298 157.997 24.0886 157.964 24.1143C157.937 24.1344 157.918 24.14 157.891 24.14V24.64V25.14C158.428 25.14 158.791 24.7887 159.01 24.3516L158.563 24.128ZM157.891 24.64V24.14C157.827 24.14 157.708 24.1141 157.519 23.9942L157.251 24.416L156.982 24.8378C157.263 25.0165 157.57 25.14 157.891 25.14V24.64ZM157.251 24.416L157.537 24.0064C157.213 23.7792 156.813 23.692 156.387 23.692V24.192V24.692C156.686 24.692 156.862 24.7541 156.964 24.8256L157.251 24.416ZM156.387 24.192V23.692C155.904 23.692 155.46 23.8283 155.072 24.1051L155.363 24.512L155.653 24.9189C155.863 24.769 156.102 24.692 156.387 24.692V24.192ZM155.363 24.512L155.072 24.1051C154.706 24.3665 154.425 24.6994 154.238 25.1006L154.691 25.312L155.144 25.5234C155.255 25.2846 155.422 25.0842 155.653 24.9189L155.363 24.512ZM154.691 25.312H154.191V34.848H154.691H155.191V25.312H154.691ZM154.691 34.848H154.191C154.191 35.068 154.11 35.2173 153.893 35.345L154.147 35.776L154.4 36.207C154.909 35.908 155.191 35.4386 155.191 34.848H154.691ZM154.147 35.776L153.902 35.3402C153.678 35.4661 153.233 35.564 152.483 35.564V36.064V36.564C153.269 36.564 153.933 36.4699 154.392 36.2118L154.147 35.776ZM152.483 36.064V35.564H151.587V36.064V36.564H152.483V36.064ZM163.736 34.88L163.349 35.1967L163.357 35.2061L163.736 34.88ZM162.872 29.376L162.395 29.2268L162.392 29.2366L162.872 29.376ZM164.12 27.488L164.461 27.8539L164.462 27.8535L164.12 27.488ZM166.936 26.048L166.798 25.5675L166.796 25.5682L166.936 26.048ZM171.928 25.504V26.004H172.428V25.504H171.928ZM171.704 23.808L171.266 24.0474L171.274 24.0622L171.283 24.0764L171.704 23.808ZM170.968 23.296L170.793 23.7642L170.81 23.7706L170.827 23.7757L170.968 23.296ZM167.288 23.328L167.178 22.8403L167.175 22.8411L167.288 23.328ZM165.624 23.776L165.473 23.2995L165.466 23.3017L165.624 23.776ZM164.12 23.648L163.699 23.9164L163.699 23.9164L164.12 23.648ZM163.704 22.816L163.227 22.9651L163.233 22.9837L163.24 23.0017L163.704 22.816ZM163.448 21.824L162.952 21.886L162.955 21.9041L162.958 21.9221L163.448 21.824ZM163.992 20.288L164.243 20.7207L164.251 20.7159L164.259 20.7107L163.992 20.288ZM165.56 19.616L165.421 19.1358L165.417 19.1371L165.56 19.616ZM167.672 19.168L167.604 18.6727L167.602 18.673L167.672 19.168ZM173.4 19.424L173.259 19.9035L173.262 19.9044L173.4 19.424ZM175.672 20.576L176.004 20.2015L176.004 20.2015L175.672 20.576ZM177.304 32.8L176.807 32.8533L176.808 32.8552L177.304 32.8ZM177.496 34.144L177.006 34.2421L177.006 34.2421L177.496 34.144ZM177.144 35.52L177.341 35.9796L177.341 35.9796L177.144 35.52ZM176.024 35.84L175.931 35.3488L175.926 35.3497L176.024 35.84ZM174.68 36L174.658 35.5005L174.657 35.5006L174.68 36ZM172.856 35.744L172.462 36.051L172.856 35.744ZM172.536 35.008L172.048 35.1128L172.048 35.1128L172.536 35.008ZM172.312 34.144L172.79 33.997L172.502 33.0585L171.912 33.844L172.312 34.144ZM171.48 34.944L171.803 35.3265L171.804 35.325L171.48 34.944ZM169.848 35.872L170.024 36.3403L170.037 36.3352L169.848 35.872ZM170.264 32L170.106 31.5256L170.096 31.5291L170.264 32ZM171.16 31.552L170.89 31.1314L170.883 31.136L170.876 31.1409L171.16 31.552ZM171.928 30.88L172.313 31.2001L172.428 31.061V30.88H171.928ZM171.928 28.832H172.428V28.332H171.928V28.832ZM169.976 28.96L169.898 28.4663L169.894 28.4668L169.976 28.96ZM168.696 29.344L168.897 29.8021L168.909 29.7969L168.92 29.7912L168.696 29.344ZM167.96 29.952L168.382 30.2204L168.388 30.2123L168.392 30.2039L167.96 29.952ZM168.12 31.808L167.767 32.1616L167.775 32.1692L167.783 32.1766L168.12 31.808ZM167.384 36.256V35.756C165.833 35.756 164.779 35.3252 164.116 34.5539L163.736 34.88L163.357 35.2061C164.272 36.2695 165.651 36.756 167.384 36.756V36.256ZM163.736 34.88L164.123 34.5634C163.442 33.7307 163.084 32.6548 163.084 31.296H162.584H162.084C162.084 32.8385 162.495 34.1519 163.35 35.1966L163.736 34.88ZM162.584 31.296H163.084C163.084 30.7295 163.172 30.1365 163.353 29.5154L162.872 29.376L162.392 29.2366C162.189 29.9382 162.084 30.6252 162.084 31.296H162.584ZM162.872 29.376L163.35 29.5251C163.533 28.9393 163.894 28.3816 164.461 27.8539L164.12 27.488L163.78 27.1221C163.109 27.7464 162.639 28.4474 162.395 29.2269L162.872 29.376ZM164.12 27.488L164.462 27.8535C165.024 27.3286 165.882 26.8781 167.077 26.5278L166.936 26.048L166.796 25.5682C165.516 25.9432 164.497 26.4528 163.779 27.1225L164.12 27.488ZM166.936 26.048L167.075 26.5285C168.27 26.184 169.882 26.004 171.928 26.004V25.504V25.004C169.836 25.004 168.12 25.1867 166.798 25.5675L166.936 26.048ZM171.928 25.504H172.428V24.736H171.928H171.428V25.504H171.928ZM171.928 24.736H172.428C172.428 24.2918 172.343 23.8795 172.126 23.5396L171.704 23.808L171.283 24.0764C171.365 24.2058 171.428 24.4122 171.428 24.736H171.928ZM171.704 23.808L172.143 23.5686C171.93 23.1764 171.546 22.9447 171.11 22.8163L170.968 23.296L170.827 23.7757C171.116 23.8606 171.223 23.9702 171.266 24.0474L171.704 23.808ZM170.968 23.296L171.144 22.8278C170.719 22.6686 170.158 22.604 169.496 22.604V23.104V23.604C170.115 23.604 170.535 23.6674 170.793 23.7642L170.968 23.296ZM169.496 23.104V22.604C168.656 22.604 167.882 22.6814 167.178 22.8403L167.288 23.328L167.399 23.8157C168.018 23.676 168.716 23.604 169.496 23.604V23.104ZM167.288 23.328L167.175 22.8411C166.526 22.9925 165.958 23.1452 165.473 23.2995L165.624 23.776L165.776 24.2525C166.23 24.1082 166.771 23.9622 167.402 23.8149L167.288 23.328ZM165.624 23.776L165.466 23.3017C165.029 23.4476 164.751 23.5 164.6 23.5V24V24.5C164.92 24.5 165.324 24.4031 165.783 24.2503L165.624 23.776ZM164.6 24V23.5C164.616 23.5 164.631 23.5029 164.642 23.5068C164.652 23.5104 164.654 23.513 164.648 23.5088C164.634 23.4984 164.596 23.464 164.542 23.3796L164.12 23.648L163.699 23.9164C163.88 24.2017 164.172 24.5 164.6 24.5V24ZM164.12 23.648L164.542 23.3796C164.413 23.1764 164.288 22.928 164.169 22.6303L163.704 22.816L163.24 23.0017C163.377 23.344 163.529 23.6502 163.699 23.9164L164.12 23.648ZM163.704 22.816L164.182 22.6669C164.08 22.3407 163.999 22.0272 163.939 21.7259L163.448 21.824L162.958 21.9221C163.026 22.2608 163.116 22.6086 163.227 22.9651L163.704 22.816ZM163.448 21.824L163.945 21.762C163.903 21.425 163.884 21.1943 163.884 21.056H163.384H162.884C162.884 21.259 162.909 21.5403 162.952 21.886L163.448 21.824ZM163.384 21.056H163.884C163.884 21.0552 163.882 20.9295 164.243 20.7207L163.992 20.288L163.742 19.8553C163.292 20.1158 162.884 20.5021 162.884 21.056H163.384ZM163.992 20.288L164.259 20.7107C164.615 20.4864 165.092 20.2786 165.704 20.0949L165.56 19.616L165.417 19.1371C164.749 19.3374 164.181 19.5776 163.726 19.8653L163.992 20.288ZM165.56 19.616L165.7 20.0962C166.337 19.9113 167.018 19.7666 167.743 19.663L167.672 19.168L167.602 18.673C166.834 18.7827 166.107 18.9367 165.421 19.1358L165.56 19.616ZM167.672 19.168L167.741 19.6632C168.489 19.5593 169.192 19.508 169.848 19.508V19.008V18.508C169.14 18.508 168.392 18.5633 167.604 18.6728L167.672 19.168ZM169.848 19.008V19.508C171.25 19.508 172.382 19.6444 173.259 19.9035L173.4 19.424L173.542 18.9445C172.542 18.6489 171.306 18.508 169.848 18.508V19.008ZM173.4 19.424L173.262 19.9044C174.174 20.1679 174.858 20.523 175.341 20.9505L175.672 20.576L176.004 20.2015C175.378 19.6477 174.547 19.2347 173.539 18.9436L173.4 19.424ZM175.672 20.576L175.341 20.9505C175.833 21.3855 176.178 21.8997 176.384 22.4985L176.856 22.336L177.329 22.1735C177.066 21.4069 176.621 20.7479 176.004 20.2015L175.672 20.576ZM176.856 22.336L176.384 22.4985C176.599 23.1242 176.708 23.8048 176.708 24.544H177.208H177.708C177.708 23.7045 177.584 22.9131 177.329 22.1735L176.856 22.336ZM177.208 24.544H176.708V30.368H177.208H177.708V24.544H177.208ZM177.208 30.368H176.708C176.708 31.3993 176.741 32.2302 176.807 32.8533L177.304 32.8L177.802 32.7467C177.74 32.1751 177.708 31.3847 177.708 30.368H177.208ZM177.304 32.8L176.808 32.8552C176.872 33.4364 176.938 33.9011 177.006 34.2421L177.496 34.144L177.987 34.0459C177.927 33.7469 177.865 33.3156 177.801 32.7448L177.304 32.8ZM177.496 34.144L177.006 34.2421C177.066 34.5413 177.092 34.7842 177.092 34.976H177.592H178.092C178.092 34.6985 178.055 34.3867 177.987 34.0459L177.496 34.144ZM177.592 34.976H177.092C177.092 34.9807 177.092 34.9785 177.094 34.9731C177.096 34.9676 177.098 34.9664 177.095 34.9701C177.086 34.9801 177.05 35.0165 176.948 35.0604L177.144 35.52L177.341 35.9796C177.74 35.8087 178.092 35.4884 178.092 34.976H177.592ZM177.144 35.52L176.948 35.0604C176.692 35.1698 176.356 35.2678 175.931 35.3488L176.024 35.84L176.118 36.3312C176.589 36.2416 176.999 36.1262 177.341 35.9796L177.144 35.52ZM176.024 35.84L175.926 35.3497C175.527 35.4297 175.104 35.4802 174.658 35.5005L174.68 36L174.703 36.4995C175.196 36.4771 175.669 36.421 176.123 36.3303L176.024 35.84ZM174.68 36L174.657 35.5006C174.214 35.5217 173.838 35.532 173.528 35.532V36.032V36.532C173.859 36.532 174.251 36.521 174.704 36.4994L174.68 36ZM173.528 36.032V35.532C173.345 35.532 173.284 35.4795 173.251 35.437L172.856 35.744L172.462 36.051C172.727 36.3925 173.115 36.532 173.528 36.532V36.032ZM172.856 35.744L173.251 35.437C173.158 35.3177 173.078 35.1466 173.025 34.9032L172.536 35.008L172.048 35.1128C172.123 35.4667 172.256 35.7863 172.462 36.051L172.856 35.744ZM172.536 35.008L173.025 34.9032C172.959 34.5911 172.88 34.2889 172.79 33.997L172.312 34.144L171.835 34.291C171.915 34.5537 171.986 34.8276 172.048 35.1128L172.536 35.008ZM172.312 34.144L171.912 33.844C171.822 33.9641 171.586 34.1978 171.157 34.563L171.48 34.944L171.804 35.325C172.228 34.9649 172.547 34.6653 172.712 34.444L172.312 34.144ZM171.48 34.944L171.158 34.5615C170.805 34.8588 170.312 35.1441 169.66 35.4088L169.848 35.872L170.037 36.3352C170.75 36.0453 171.345 35.7119 171.803 35.3265L171.48 34.944ZM169.848 35.872L169.673 35.4038C169.061 35.6333 168.302 35.756 167.384 35.756V36.256V36.756C168.387 36.756 169.271 36.6227 170.024 36.3402L169.848 35.872ZM169.336 32.16V32.66C169.713 32.66 170.08 32.597 170.433 32.4709L170.264 32L170.096 31.5291C169.852 31.6163 169.6 31.66 169.336 31.66V32.16ZM170.264 32L170.423 32.4743C170.788 32.3527 171.129 32.1821 171.445 31.9631L171.16 31.552L170.876 31.1409C170.638 31.3059 170.381 31.434 170.106 31.5257L170.264 32ZM171.16 31.552L171.431 31.9726C171.77 31.7549 172.065 31.4977 172.313 31.2001L171.928 30.88L171.544 30.5599C171.366 30.7743 171.149 30.9651 170.89 31.1314L171.16 31.552ZM171.928 30.88H172.428V28.832H171.928H171.428V30.88H171.928ZM171.928 28.832V28.332C171.144 28.332 170.465 28.3754 169.898 28.4663L169.976 28.96L170.055 29.4537C170.554 29.3739 171.177 29.332 171.928 29.332V28.832ZM169.976 28.96L169.894 28.4668C169.35 28.5576 168.872 28.6974 168.473 28.8968L168.696 29.344L168.92 29.7912C169.204 29.6492 169.579 29.5331 170.059 29.4532L169.976 28.96ZM168.696 29.344L168.496 28.8859C168.083 29.0667 167.744 29.3314 167.529 29.7001L167.96 29.952L168.392 30.2039C168.476 30.0606 168.627 29.92 168.897 29.8021L168.696 29.344ZM167.96 29.952L167.539 29.6836C167.328 30.015 167.236 30.4012 167.236 30.816H167.736H168.236C168.236 30.5481 168.295 30.3584 168.382 30.2204L167.96 29.952ZM167.736 30.816H167.236C167.236 31.3366 167.406 31.8002 167.767 32.1616L168.12 31.808L168.474 31.4544C168.323 31.3038 168.236 31.1061 168.236 30.816H167.736ZM168.12 31.808L167.783 32.1766C168.172 32.5339 168.728 32.66 169.336 32.66V32.16V31.66C168.836 31.66 168.581 31.5514 168.458 31.4394L168.12 31.808Z" fill="black" fill-opacity="0.29"/>
</g>
</g>
<defs>
<filter id="filter0_d_2_22" x="-11.676" y="-49.628" width="254.769" height="155.384" filterUnits="userSpaceOnUse" color-interpolation-filters="sRGB">
<feFlood flood-opacity="0" result="BackgroundImageFix"/>
<feColorMatrix in="SourceAlpha" type="matrix" values="0 0 0 0 0 0 0 0 0 0 0 0 0 0 0 0 0 0 127 0" result="hardAlpha"/>
<feOffset dy="4"/>
<feGaussianBlur stdDeviation="32.5"/>
<feComposite in2="hardAlpha" operator="out"/>
<feColorMatrix type="matrix" values="0 0 0 0 0 0 0 0 0 0 0 0 0 0 0 0 0 0 0.45 0"/>
<feBlend mode="normal" in2="BackgroundImageFix" result="effect1_dropShadow_2_22"/>
<feBlend mode="normal" in="SourceGraphic" in2="effect1_dropShadow_2_22" result="shape"/>
</filter>
<clipPath id="clip0_2_22">
<rect width="300" height="47.1698" fill="white" transform="translate(0 0.169815)"/>
</clipPath>
</defs>
</svg>
